<svg xmlns="http://www.w3.org/2000/svg"  viewBox="0 0 64 64" width="64px" height="64px"><path fill="#f9e3ae" d="M13,20v5h6V19A12,12,0,0,1,31,7h2A12,12,0,0,1,45,19v6h6V20A19,19,0,0,0,32,1h0A19,19,0,0,0,13,20Z"/><path fill="#f9e3ae" d="M13,20v5h6V19A12,12,0,0,1,31,7h2A12,12,0,0,1,45,19v6h6V20A19,19,0,0,0,32,1h0A19,19,0,0,0,13,20Z"/><path fill="#f5c872" d="M29 1H35V7H29z"/><rect width="50" height="34" x="7" y="25" fill="#c2cde7" rx="3" ry="3"/><path fill="#acb7d0" d="M11,40H53a4,4,0,0,1,4,4V56a3,3,0,0,1-3,3H10a3,3,0,0,1-3-3V44A4,4,0,0,1,11,40Z"/><path fill="#8d6c9f" d="M55,24H52V19A19,19,0,0,0,33,0H31A19,19,0,0,0,12,19v5H9a3,3,0,0,0-3,3V57a3,3,0,0,0,3,3H55a3,3,0,0,0,3-3V27A3,3,0,0,0,55,24Zm-5-5v5H46V19A13,13,0,0,0,36,6.36V2.28A17,17,0,0,1,50,19ZM31,8h2A11,11,0,0,1,44,19v5H20V19A11,11,0,0,1,31,8Zm2-6c.34,0,.67,0,1,.05v4C33.67,6,33.34,6,33,6H31c-.34,0-.67,0-1,.05v-4c.33,0,.66-.05,1-.05ZM14,19A17,17,0,0,1,28,2.28V6.36A13,13,0,0,0,18,19v5H14ZM56,57a1,1,0,0,1-1,1H9a1,1,0,0,1-1-1V27a1,1,0,0,1,1-1H55a1,1,0,0,1,1,1Z"/><path fill="#8d6c9f" d="M53 54H49a1 1 0 0 0 0 2h4a1 1 0 0 0 0-2zM45 54H11a1 1 0 0 0 0 2H45a1 1 0 0 0 0-2zM18 38A2 2 0 1 0 18 42 2 2 0 1 0 18 38zM27 38A2 2 0 1 0 27 42 2 2 0 1 0 27 38zM36 38A2 2 0 1 0 36 42 2 2 0 1 0 36 38zM48.95 48.32a1 1 0 0 0-.63-1.26L46 46.28V41h1a1 1 0 0 0 0-2H46V33.72l2.32-.77a1 1 0 1 0-.63-1.9L45 31.95l-2.68-.89a1 1 0 1 0-.63 1.9l2.32.77V39H43a1 1 0 0 0 0 2h1v5.28l-2.32.77a1 1 0 1 0 .63 1.9L45 48.05l2.68.89a1 1 0 0 0 1.27-.63z"/></svg>